<?xml version="1.0" encoding="utf-8"?>
<!DOCTYPE svg PUBLIC "-//W3C//DTD SVG 20010904//EN" "http://www.w3.org/TR/2001/REC-SVG-20010904/DTD/svg10.dtd">
<svg version="1.0" xmlns="http://www.w3.org/2000/svg" width="1080px" height="810px" viewBox="0 0 1080 810" preserveAspectRatio="xMidYMid meet">
 <g fill="#ffffff">
  <path d="M295.2 543.8 c-2 -2 -1.4 -13.6 1.1 -22.8 3 -10.6 12.5 -36.8 27.5 -75 10.6 -27.2 11.3 -29.5 9.7 -30.5 -1 -0.5 -3.4 -2.4 -5.4 -4.1 -3.2 -2.9 -3.5 -3.7 -3.9 -9.5 -0.4 -7.4 1.9 -14.9 7.2 -22.8 l3.3 -4.9 -3 -0.6 c-1.6 -0.3 -9.1 -0.6 -16.6 -0.6 l-13.7 0 -6.9 9.8 c-11.9 16.8 -26.2 35.6 -29.9 39.5 -3.4 3.4 -4.1 3.7 -9.4 3.7 -3.2 0 -6.3 -0.5 -7 -1.2 -0.7 -0.7 -1.2 -3.6 -1.2 -6.5 0 -4.7 0.3 -5.4 2.8 -6.7 3.7 -1.9 8.1 -8.4 8.8 -12.7 0.3 -2.4 -0.1 -4.4 -1.6 -6.7 -4.2 -6.8 -19.3 -13.4 -30 -13.2 -3 0.1 -8.2 0.3 -11.5 0.3 l-6 0.2 -0.3 -5.1 c-0.2 -3.3 0.2 -5.5 1 -6.2 0.9 -0.7 14.9 -1.5 39 -2.3 l37.6 -1.3 13.1 -17.5 c34.6 -46.7 57.1 -71.5 70.5 -77.7 6.6 -3.1 15.3 -3.3 18.7 -0.5 2.2 1.8 2.4 2.6 2.3 11.3 0 6.1 -0.8 12.1 -2.2 17.5 -1.9 7.2 -11.8 38 -13.7 42.5 -0.5 1.4 0.3 1.2 5.4 -0.8 8.9 -3.6 20.6 -6.4 27 -6.4 5.6 -0.1 5.6 -0.1 8.3 -4.6 l2.8 -4.5 5.2 0.3 5.3 0.3 0.5 4.7 c0.4 4 1 5 4 7 5.6 3.7 7.2 7.9 6.7 17 -0.4 5.8 -1.3 9.6 -4 15.6 -3.4 8 -3.4 8 -1 7.1 3.3 -1.2 11 -1.1 13.4 0.1 1.4 0.8 1.9 2.1 1.9 5.5 0 2.5 0.2 4.5 0.5 4.5 2.3 0 6.8 -3.7 8.5 -7 1.9 -3.7 2.3 -4 6.3 -4 4.6 0 6.7 1.3 6.7 4.2 0 1.6 0.6 1.4 4.2 -1.2 3.5 -2.6 5 -3 8.8 -2.8 l4.5 0.3 0.3 5.1 c0.2 3.4 -0.4 6.6 -1.8 9.8 -1.1 2.6 -2 5 -2 5.2 0 1.8 8.6 -6.9 10.9 -11.1 1.7 -2.9 4.2 -6.2 5.7 -7.4 2.5 -1.9 2.7 -2.7 2.6 -7.9 -0.3 -7.7 1.1 -9.4 7.4 -9 4.2 0.3 5 0.7 5.8 2.9 1.1 3.1 0 11.5 -1.7 13.1 -0.7 0.6 -1.1 2.8 -0.9 5 0.3 3.1 -0.1 4.5 -2 6.6 -2.9 3.1 -6.8 8.7 -6.8 9.7 0 0.8 10.9 -7.7 14.3 -11.3 1.4 -1.5 3.7 -4.7 4.9 -7.1 2.8 -5.2 7.6 -8.1 13.5 -8.1 4.7 0 6.3 1.7 6.3 6.7 0 3.3 -0.6 4.3 -4.2 6.6 -3.3 2 -5 5 -4.2 7.1 0.4 1.1 2.2 0.2 7.9 -4.2 l7.4 -5.7 0 -10.4 c0.2 -21.3 7.8 -38 25.2 -54.7 19.6 -18.8 42 -30 73 -36.8 1.8 -0.4 3.4 -2.1 5.4 -5.8 4 -7.6 5.3 -8.8 9.4 -8.8 5.6 0 6.4 1 5.9 7.3 l-0.4 5.4 11 0.5 c25.8 1.2 44.3 13.4 50 32.7 2 6.8 2.1 23.6 0.2 30.8 -2.1 8 -7.6 19.2 -12.8 26.1 -2.7 3.5 -4.8 6.5 -4.8 6.8 0 0.2 0.8 0.4 1.8 0.4 2.8 0 4.2 2.1 4.2 6.4 l0 3.9 3.2 -4.4 c1.7 -2.4 3.6 -4.7 4.2 -5.1 1.3 -0.9 5.9 -1 8 -0.2 2.6 1 1.9 7.5 -1.5 14.8 -5.4 11.5 -0.8 9.5 5.3 -2.3 4.2 -8.2 9.1 -12.2 15.6 -12.9 2.9 -0.2 5.9 0.1 7.2 0.8 2 1.1 2.2 1.8 1.8 7.1 l-0.4 5.9 2.2 -2.1 c1.2 -1.1 3 -3.9 4 -6.2 2.3 -5.2 2.9 -5.7 7.6 -5.7 3.5 0 6.2 1.6 7 4.2 0.3 0.9 1.5 0.4 3.7 -1.5 3.5 -2.9 10.6 -3.8 12.9 -1.5 1.9 1.9 1.4 7.9 -1.3 13.7 -1.4 3 -2.4 5.6 -2.1 5.8 0.2 0.2 3.2 -2.2 6.6 -5.4 4.9 -4.6 6.8 -7.4 9.6 -13.7 1.8 -4.3 3.1 -8.2 2.8 -8.7 -0.3 -0.5 -4 -0.9 -8.4 -0.9 -8.4 0 -9 -0.4 -9 -5.8 0 -5.1 1 -5.5 13.2 -6 l11.3 -0.4 6 -11 c3.3 -6.1 7.7 -13 9.9 -15.5 3.7 -4.2 4 -4.4 9 -4.1 l5.1 0.3 0.3 3.9 c0.5 5.6 -0.1 7.2 -6.3 17 -3 4.9 -5.5 9 -5.5 9.2 0 0.2 4.2 0.4 9.3 0.5 5 0 11 0.3 13.2 0.7 4 0.7 4 0.8 4 5.2 0 4.4 -0.1 4.5 -3.4 4.8 -1.9 0.2 -4.4 -0.1 -5.5 -0.8 -1.3 -0.6 -6.5 -1 -13.6 -0.8 l-11.5 0.3 -3.1 6 c-1.7 3.3 -3.4 7.6 -3.8 9.5 l-0.6 3.4 3.9 -3.8 c3.3 -3.2 4.9 -4 8.9 -4.4 7.3 -0.7 9.2 0.7 9.2 6.9 0 2.8 -0.5 6 -1.1 7.2 -0.6 1.2 1.5 -0.6 4.6 -4 4.8 -5.4 6.2 -6.3 9.1 -6.3 3.2 0 3.4 0.2 3.4 3.5 0 3.9 -1.8 6.3 -13.9 18.8 -8.9 9.2 -13.1 11.7 -19.9 11.7 -6.5 0 -9.1 -2.1 -9.9 -7.9 l-0.6 -4.4 -4.8 10.3 c-2.7 5.7 -4.9 10.4 -4.9 10.5 0 0.1 4 0.5 8.9 0.8 4.8 0.4 9.6 0.9 10.5 1.3 2.2 0.9 2.3 8.9 0 9.8 -0.9 0.3 -6.9 0.6 -13.4 0.6 -6.9 0 -12.1 0.4 -12.5 1 -0.7 1.2 -7.7 1.4 -9 0.2 -1.2 -0.9 -123.6 0.2 -162.5 1.4 -15.1 0.5 -25.8 1 -23.8 1.2 3 0.3 3.9 0.8 4.6 3 l0.9 2.7 1.3 -2.7 1.3 -2.7 12.2 0 12.3 -0.1 -0.1 11.5 0 11.5 -8.3 0 -8.3 0 -0.3 -7.2 -0.3 -7.1 -3.1 7.4 c-2.9 7.1 -3.2 7.4 -6.6 7.7 -2.8 0.2 -3.7 -0.1 -4.1 -1.5 -0.4 -1.7 -0.5 -1.7 -0.6 0 -0.1 1.3 -1 1.7 -3.6 1.7 -3.4 0 -3.7 -0.3 -6.6 -6.7 -1.7 -3.8 -3.3 -8.1 -3.6 -9.7 -0.6 -2.7 -0.8 -2.4 -3.3 4 l-2.8 6.9 -4.3 0 c-4.2 0 -4.4 -0.1 -4.7 -3.3 -0.3 -2.9 0.8 -7.2 3.3 -13.4 0.6 -1.6 0.1 -1.7 -5.7 -1.3 -3.4 0.3 -13.5 1 -22.3 1.6 -8.8 0.5 -20.5 1.7 -25.9 2.5 -5.5 0.7 -11.5 1.4 -13.3 1.4 -3.4 0 -3.4 0 -3.1 -4.2 0.3 -4.2 0.4 -4.3 5.1 -5.5 4.8 -1.2 28.8 -3.6 52.7 -5.3 15.8 -1.1 -56.7 -0.4 -108 1 -41.7 1.2 -61.5 2.5 -72.5 4.6 -4.4 0.8 -10.8 1.8 -14.2 2.1 l-6.3 0.6 0 -5 c0 -4.6 0.3 -5.2 2.8 -6.2 1.5 -0.6 4.8 -2.5 7.2 -4.1 l4.5 -3 -18.2 -0.2 c-10.1 -0.1 -19.5 -0.2 -20.9 -0.2 -3 -0.1 -1.7 -2.9 -17.5 38.9 -17.5 46.3 -24.9 70.1 -24.9 80.6 0 4.3 -0.4 5.8 -1.6 6.3 -2.6 1 -7.9 0.7 -9.2 -0.6z m159.3 -123.8 c19.3 -0.6 56.7 -1.3 83.3 -1.7 l48.3 -0.6 -6.3 -3.4 c-7.4 -4 -15.9 -11.9 -19.7 -18.6 l-2.8 -4.8 -7.2 5.7 c-6.1 4.9 -7.1 6.1 -7.1 8.8 0 4.2 -1.7 9.8 -3.2 10.8 -1.7 1 -9 1 -10.7 -0.1 -1 -0.7 -1.3 -2.6 -0.9 -7.8 0.4 -5 0.1 -7.5 -0.9 -8.8 -1.2 -1.8 -1.5 -1.7 -5.1 1.6 -9 8.5 -13.1 11.2 -18.2 11.7 -6.3 0.6 -10 -1.5 -10 -5.7 l0 -2.8 -4.7 2.3 c-5.3 2.8 -11.4 3.1 -13.7 0.8 -0.9 -0.8 -1.6 -3 -1.6 -4.7 l0 -3.2 -6.5 6.8 c-6.1 6.2 -6.9 6.7 -10.8 6.7 -2.4 0 -4.8 -0.5 -5.5 -1.2 -1.4 -1.4 -1.6 -8.7 -0.2 -12.2 1.3 -3.5 -0.4 -3.3 -1.9 0.2 -4.2 9.4 -9.3 13.2 -17.6 13.2 -3.8 0 -5.2 -0.5 -7.6 -2.9 -2.6 -2.6 -2.9 -3.6 -2.9 -9.2 l0 -6.2 -4.2 4.9 c-7.3 8.5 -12 12.4 -14.7 12.4 -2.5 0 -2.6 0.2 -2.3 5.3 l0.4 5.3 9.6 -0.8 c5.3 -0.4 25.5 -1.2 44.7 -1.8z m346.1 -6 c1.3 -3.5 2.2 -6.6 2 -6.7 -0.2 -0.2 -1.5 0.1 -3 0.7 -7.1 2.7 -13.5 -0.1 -13.6 -5.7 -0.1 -2.6 -0.5 -2.4 -6.4 4 -6.3 6.8 -6.3 6.8 -11.2 6.5 -4.5 -0.3 -4.9 -0.5 -5.4 -3.1 l-0.5 -2.7 -3.8 2.7 c-2.8 2 -5.3 2.8 -9.7 3.1 -5.2 0.4 -6.1 0.2 -8.4 -2.1 -2.1 -2.1 -3.1 -2.4 -7 -2 -3.3 0.4 -5.3 0.1 -7.1 -1.1 -2.2 -1.5 -2.6 -1.5 -3.1 -0.2 -1.1 3 -6.9 5.6 -12.2 5.6 -4.3 0 -5.4 -0.4 -7.1 -2.6 -2.6 -3.3 -2.9 -13.9 -0.6 -20.3 0.8 -2.2 1.2 -4.1 1 -4.1 -0.2 0 -3.4 2.3 -7 5 -19.5 14.7 -48.2 22.3 -72 19 -12.3 -1.7 -12.9 -1.7 -13.3 0.1 -0.2 1.3 0.9 1.8 5.2 2.3 4.1 0.6 5.7 1.2 6.1 2.6 0.8 2.4 8.7 2.7 79.5 3.6 30 0.4 61.7 1 70.5 1.4 8.8 0.4 18 0.6 20.4 0.6 l4.3 -0.1 2.4 -6.5z m-440.6 -4.9 c-2.6 -5 -0.5 -19.4 4 -26.5 2.8 -4.4 2.8 -4.5 0.8 -5.1 -1.1 -0.4 -2.3 -0.3 -2.8 0.2 -0.4 0.4 -3.3 7.6 -6.5 15.8 -3.1 8.3 -6 15.6 -6.2 16.3 -0.4 0.9 1.1 1.2 5.6 1.2 5.8 0 6.1 -0.1 5.1 -1.9z m32.2 -7.5 c-0.3 -8.8 -0.5 -9.3 -2.3 -8.9 -1.1 0.3 -3.4 2.6 -5.1 5.2 -1.7 2.5 -4.6 6.5 -6.5 8.9 l-3.4 4.2 8.8 0 8.8 0 -0.3 -9.4z m-47.9 -8.1 c7.5 -19.5 7.3 -18.5 4.4 -18.5 -5.2 0 -19.2 22.4 -16.8 26.8 1.1 2 6.1 6.5 6.7 5.9 0.2 -0.1 2.7 -6.5 5.7 -14.2z m256 13.3 c0.2 -0.7 0.2 -3.8 0 -6.8 -0.4 -5 0.1 -6.7 5.5 -19 8.3 -18.9 26.1 -56.8 34.4 -73.3 3.8 -7.7 6.7 -14.1 6.5 -14.3 -0.7 -0.7 -14.7 4.6 -24.3 9.2 -24.2 11.8 -42 28.4 -51.4 47.9 -5.5 11.3 -6.7 18.6 -4.5 26.1 3.4 11.9 11.1 20.8 23.6 27.4 8 4.3 9.5 4.7 10.2 2.8z m-183.4 -24.8 c10.7 -15.6 15.4 -27.3 13.2 -32.8 -0.6 -1.5 -2.1 -3.4 -3.3 -4.1 -2.8 -1.7 -3.1 -1.4 -12.2 16.9 -6.8 13.7 -12.6 29.2 -13.9 37 l-0.6 3.5 5.5 -6 c3 -3.3 8.1 -9.8 11.3 -14.5z m239.6 16.1 c31.8 -9.1 60.1 -35.7 67.1 -63.3 4.6 -17.7 -6 -34.8 -26 -42.3 -7.4 -2.8 -20.2 -4.6 -26.3 -3.8 -4 0.5 -4.3 0.8 -6.9 6.7 -1.5 3.3 -12.6 27.6 -24.6 54 -12.1 26.3 -21.6 48.2 -21.1 48.7 3.3 3.3 26.4 3.3 37.8 0z m-219.6 -3 c-0.3 -0.7 -1.3 0.3 -2.3 2.1 l-1.9 3.3 2.3 -2.1 c1.2 -1.2 2.1 -2.7 1.9 -3.3z m-162.7 -13.2 l5.8 -7.9 -6.3 0.1 c-3.4 0.1 -9.1 0.4 -12.6 0.8 l-6.4 0.6 4.6 3.3 c2.6 1.9 5.3 4.9 6.4 7.2 1 2.2 2 3.9 2.3 3.9 0.3 0 3.1 -3.6 6.2 -8z m123.3 -23.6 c10.7 -16.6 10.6 -16.5 6.4 -15.7 -7.2 1.3 -22.1 6.8 -28 10.3 -5.2 3 -6.5 4.3 -8 8.3 l-1.8 4.7 2.7 0.5 c1.5 0.2 4.5 0.8 6.7 1.1 5.6 0.9 7.5 2.2 7.5 5 0 3.2 2.1 3.7 4.3 1.1 0.9 -1.1 5.6 -8.1 10.2 -15.3z m-51.4 4.1 c1.3 -1.4 5.2 -4.8 8.5 -7.5 l6.2 -4.9 7 -21.2 c6.5 -19.7 12.2 -41.5 12.2 -46.7 0 -2.2 0 -2.2 -3.1 -0.4 -10.1 5.8 -32.6 32.1 -61.7 72.1 l-8.2 11.2 18.3 0 18.4 0 2.4 -2.6z"/>
  <path d="M717.1 454.3 c-1.8 -4.3 -3.5 -8 -3.8 -8.3 -0.3 -0.3 -0.2 3 0.2 7.3 l0.7 7.7 -8.6 0 -8.6 0 0 -11.5 0 -11.5 12 0 11.9 0 1.5 2.8 1.4 2.7 1.1 -2.7 1 -2.7 12.4 0 12.4 -0.1 0 11.5 0 11.5 -8.3 0 -8.3 0 -0.3 -7.2 -0.3 -7.3 -3.1 7.5 c-3 7.1 -3.4 7.5 -6.6 7.8 -3.5 0.3 -3.5 0.2 -6.7 -7.5z"/>
  <path d="M774.5 460.9 c-1.1 -0.6 -2.6 -1.9 -3.2 -2.7 -1.1 -1.4 -1.3 -1.3 -1.3 0.6 0 2.1 -0.4 2.2 -9 2.2 l-9 0 0 -11.5 0 -11.5 4 0 4 0 0 7.5 0 7.5 4.4 0 4.3 0 0.5 -5 c0.8 -7.8 3.4 -10 12 -10 9.9 0 12.6 3.3 11.6 14.1 -0.7 7 -3.1 9.2 -10.5 9.6 -3.2 0.2 -6.7 -0.2 -7.8 -0.8z m9.1 -10 c0.3 -0.6 -0.1 -1.8 -0.9 -2.7 -1.3 -1.2 -1.9 -1.3 -3.1 -0.3 -0.8 0.7 -1.2 1.9 -0.9 2.7 0.6 1.7 3.9 1.9 4.9 0.3z"/>
  <path d="M645 449.5 l0 -11.5 7.3 0 c3.9 0 7.8 0.4 8.6 0.9 1.5 1 2.9 8 3 14.7 0.1 6.1 -1.9 7.4 -11.2 7.4 l-7.7 0 0 -11.5z"/>
  <path d="M676 449.5 l0 -11.5 6.5 0 c6.9 0 11.8 1.7 12.9 4.5 0.3 0.9 0.6 4.5 0.6 8 0 5.7 -0.3 6.6 -2.6 8.4 -2.2 1.7 -4.1 2.1 -10 2.1 l-7.4 0 0 -11.5z m10.6 1.4 c0.3 -0.6 -0.1 -1.8 -1 -2.7 -1.5 -1.5 -1.6 -1.4 -1.6 1.1 0 2.7 1.3 3.6 2.6 1.6z"/>
  <path d="M794 449.5 l0 -11.5 7.3 0 c7.3 0 9.9 1 11 4 0.3 0.8 0.6 0.3 0.6 -1.2 l0.1 -2.7 16.3 0 c21.3 0 20.7 -0.3 20.7 12.9 l0 10 -4.5 0 c-3.1 0 -4.7 -0.5 -5.4 -1.7 -1 -1.7 -1 -1.7 -1.1 0 0 1.5 -1.3 1.7 -13 1.7 l-13 0 0 -5 0 -4.9 -2.5 2.4 c-1.5 1.6 -3.6 2.5 -5.5 2.5 -2.5 0 -3 0.4 -3 2.5 0 2.3 -0.4 2.5 -4 2.5 l-4 0 0 -11.5z m35.7 -1.7 c-0.2 -1.3 -0.4 -0.5 -0.4 1.7 -0.1 2.2 0.1 3.2 0.4 2.3 0.2 -1 0.2 -2.8 0 -4z"/>
 </g>
 <g fill="#6e00ff">
  <path d="M0 405 l0 -405 540 0 540 0 0 405 0 405 -540 0 -540 0 0 -405z m301.4 136.4 c1.2 -0.5 1.6 -2 1.6 -6.3 0 -10.6 8 -36.3 26 -83.6 5 -13.2 10.3 -27.1 11.7 -30.8 2 -5.4 2.9 -6.7 4.2 -6.1 0.9 0.3 12 0.9 24.8 1.3 15.8 0.4 23.6 1 24.4 1.8 0.9 0.9 -0.6 2.3 -6.5 6.2 -4.2 2.7 -8.6 5.3 -9.6 5.6 -1.1 0.4 -2 1.5 -2 2.7 0 1.8 0.4 1.9 3.8 1.3 14.4 -2.8 20.4 -3.6 33.7 -4.5 21 -1.4 74.3 -2.9 132.9 -3.7 l49.8 -0.6 -0.7 2.4 c-0.4 1.3 -1.1 2.8 -1.5 3.2 -0.4 0.5 -7.5 1.3 -15.6 1.8 -35.2 2.2 -57.6 4.9 -59 7 -1.1 1.9 0.2 1.9 10.2 0.5 14.2 -2.1 62.4 -5.4 62.4 -4.3 0 0.3 -1.4 4.3 -3 8.8 -2.1 5.7 -2.7 8.6 -2 9.3 1.5 1.5 2.3 0.2 6.1 -9.6 l3.4 -8.6 9 -0.6 c28.8 -2 192.9 -3.7 195.4 -2.2 0.7 0.5 1.8 0.3 2.4 -0.3 0.7 -0.7 5.5 -1.1 12.8 -1.1 12.4 0 14.9 -0.4 14.9 -2.5 0 -2 -2.6 -2.6 -13.7 -3.2 -5.7 -0.3 -10.3 -0.7 -10.3 -0.8 0 -0.1 3.1 -6.8 7 -14.8 6.7 -14 13 -30.5 13 -34.3 0 -1.1 1.5 -4.6 3.3 -7.9 l3.2 -6 14.9 -0.3 c10.3 -0.2 15.3 0.1 16.3 0.9 1 0.9 1.7 0.9 2.5 0.1 2.6 -2.6 -1.1 -3.6 -15.7 -4 -8 -0.3 -14.5 -0.6 -14.5 -0.8 0 -0.2 2.9 -4.7 6.4 -10.1 7.7 -11.8 10.1 -16.6 9.3 -18.7 -2.1 -5.3 -9.3 1.9 -18.2 18.2 l-6 11 -11.3 0.4 c-11.6 0.4 -13.7 1.2 -12.5 4.6 0.5 1.1 1.8 1.3 6.2 0.8 6 -0.7 11.6 0.6 12.5 2.9 0.2 0.7 -1.5 5.7 -3.9 11.1 -4.7 10.3 -9.3 16.1 -17.4 21.5 -4.5 2.9 -9.1 3.8 -9.1 1.8 0 -0.6 1.8 -5.4 4.1 -10.7 3.5 -8.3 3.9 -9.7 2.6 -11 -0.9 -0.8 -2.3 -1.1 -3.5 -0.8 -1.9 0.6 -12.3 10.8 -17.7 17.4 -1.5 1.8 -2.9 3.1 -3.2 2.9 -0.2 -0.2 1.4 -4.1 3.6 -8.6 4 -8.2 4.3 -10.4 1.5 -11.5 -2.4 -0.9 -3.8 0.3 -5.7 4.9 -1.3 3 -4.5 6.9 -9.7 11.8 -10.7 10.1 -17.9 13.2 -18.8 8.4 -0.7 -3.8 0.7 -6.4 3.7 -7 4.4 -0.9 10.9 -7.2 12.3 -11.9 1.1 -3.6 1 -4.2 -0.8 -5.5 -4.4 -3.2 -12.2 2.2 -17.2 11.8 -4 7.7 -5.4 9.3 -9.3 11 -6.2 2.5 -6.9 -4.1 -1.7 -15.3 2.5 -5.5 2.9 -7.1 1.8 -7.8 -2.1 -1.3 -3.3 -0.4 -8 6.7 -6.6 9.8 -11.7 16.1 -14.1 17.4 -2.1 1.1 -2.2 1 -1.5 -3.2 0.3 -2.4 2.2 -7.7 4.2 -11.6 3 -6 3.4 -7.5 2.4 -8.8 -0.7 -0.8 -1.9 -1.5 -2.6 -1.5 -3.3 0 -10.4 15.7 -10.4 23 0 4.4 3.2 9 6.2 9 3.2 0 7.4 -3 11 -7.8 l3.3 -4.4 1.2 3.1 c2.2 5.4 7.4 6 12.4 1.5 1.5 -1.3 1.7 -1.2 2.2 1.5 0.4 1.7 1.8 3.8 3.2 4.7 4 2.6 9 0.6 17.4 -7.2 3.9 -3.6 7.1 -6.4 7.1 -6.1 0 0.2 -0.7 2.1 -1.6 4.2 -0.8 2 -1.4 5.1 -1.2 6.8 0.6 5.8 3.1 4.6 13.9 -6.8 5.6 -5.8 10.3 -10.4 10.5 -10.3 0.1 0.2 -0.2 2.5 -0.8 5.1 -1.2 5.8 -0.5 9.3 2.2 10.7 2.7 1.5 7.2 -0.6 14.6 -6.7 l6 -5.1 -5.2 13.7 c-2.8 7.5 -5.4 14.4 -5.8 15.5 -0.6 1.7 -1.5 1.8 -14.4 1.2 -28.2 -1.4 -81.8 -2.6 -114.3 -2.6 -41.4 0 -51.6 -0.6 -52.4 -3 -0.4 -1.2 -2.1 -2 -5.3 -2.5 -2.6 -0.3 -5.7 -0.9 -6.9 -1.2 l-2.1 -0.5 2 -4.9 c1.1 -2.7 2.7 -4.9 3.4 -4.9 0.7 0 4.3 0.7 8.1 1.7 10.6 2.6 27.5 2.1 39.4 -1 29.4 -7.7 55 -28.3 66.7 -53.7 4.8 -10.5 6.2 -15.9 6.2 -24.8 0 -19.9 -11.5 -34.6 -32.7 -41.8 -6.2 -2.1 -10.4 -2.8 -20 -3.2 -6.8 -0.2 -12.3 -0.6 -12.3 -0.7 0 -0.1 0.7 -2.2 1.5 -4.5 1.9 -5.4 1.9 -6.6 -0.1 -7.4 -2.3 -0.9 -3.9 0.8 -7.6 7.6 -2.3 4.3 -3.8 6 -5.7 6.4 -18 3.9 -33.7 9.7 -46.6 17.1 -21 12 -37.9 28.9 -45.4 45.5 -4.9 10.8 -6.4 18.1 -5.8 28.9 l0.5 9.6 -6.7 5.1 c-3.6 2.7 -7.7 6.2 -9 7.6 -1.4 1.4 -2.8 2.6 -3.3 2.6 -0.5 0 -1.8 -2 -2.9 -4.5 -1.8 -4 -1.8 -4.7 -0.5 -7.9 0.8 -1.9 2.7 -4.3 4.3 -5.2 3.8 -2.5 4.3 -3.5 3.1 -5.7 -2 -3.8 -9.6 0.2 -12.8 6.8 -2.9 6.1 -17.3 18.8 -24.2 21.4 -2.7 1 -2.8 0.9 -2.8 -1.9 0 -4 3.3 -10.8 7.6 -15.8 3.5 -4.1 3.7 -6.5 0.6 -7.7 -2.4 -0.9 -6.3 2.5 -10.2 8.9 -5.9 9.6 -20 18.6 -20 12.7 0 -1 1.6 -5.2 3.5 -9.4 5.2 -11.3 4.2 -15.2 -2.8 -10.8 -2.8 1.7 -6.1 5.1 -19 19.6 -0.4 0.6 1 -2.8 3.2 -7.4 4.4 -9 4.8 -11 2.9 -12.9 -2.1 -2.1 -3.7 -1.3 -5.8 2.8 -1.5 2.9 -3.4 4.7 -7 6.5 -5.9 3 -8 3.2 -8 0.6 0 -1.1 -0.5 -2.3 -1.1 -2.7 -0.8 -0.4 -0.8 -0.9 0 -1.7 1.9 -1.9 1.2 -4.7 -1.4 -5.9 -5.8 -2.6 -15.7 3.9 -19.6 12.9 -2.9 6.7 -2.5 11.8 1 15.4 3.3 3.3 4.7 3.5 9.4 1.6 3.1 -1.3 7.3 -6.5 9.7 -11.7 0.8 -1.8 2.8 -3.2 6.3 -4.5 2.9 -1.1 5.6 -2.1 6 -2.3 0.4 -0.2 0.1 1.3 -0.9 3.4 -0.9 2.2 -2.3 6 -3.2 8.7 -1.5 4.4 -1.5 4.9 0.1 6.4 2.4 2.4 4.1 1.2 14.7 -10.5 5.1 -5.6 9.4 -10.1 9.6 -9.9 0.2 0.2 -0.1 1.9 -0.6 3.8 -2.4 8.2 -0.3 14.7 4.4 13.3 3.7 -1.2 7.5 -3.4 11.1 -6.5 l3.5 -3.1 0 5.6 c0 4.8 0.3 5.8 2.5 7.2 1.5 1 3.2 1.3 4.7 0.9 3 -0.9 9.7 -6.2 17.5 -13.8 5.4 -5.3 6.3 -5.8 6.8 -4.1 0.3 1 1.7 4.1 3.1 6.7 2.4 4.5 2.5 4.9 1 7.2 -3.2 4.9 -1.2 9.5 3.5 8 2.2 -0.7 3.2 -3.8 3 -9.2 -0.1 -4.1 0.1 -4.3 8.1 -10.8 12 -9.6 11.2 -9.5 14.9 -2.6 5.8 10.9 19.3 21.6 33.2 26.1 2.1 0.6 3.6 1.7 3.4 2.3 -0.3 0.9 -6.9 1.3 -22.8 1.4 -35.5 0.3 -121.2 2.3 -146.4 3.4 -20.6 0.8 -29.5 1.7 -39 3.5 -2.8 0.6 -2.7 0.4 1.8 -3 5.5 -4.3 6.4 -8 2.1 -9.6 -1.4 -0.6 -13 -1 -25.9 -1 -12.9 0 -23.6 -0.4 -23.9 -0.8 -0.3 -0.5 2.9 -9.7 7.2 -20.6 l7.6 -19.7 3.6 0.6 c1.9 0.3 5.8 1.3 8.6 2.2 5.5 1.7 8.4 1.3 8.4 -1.1 0 -2.2 -3 -3.5 -11.5 -4.7 -8.5 -1.3 -8.2 -0.4 -4.1 -10.6 2.1 -5.2 3 -6.2 8.5 -9.4 8.6 -5.1 23.5 -9.9 33.6 -10.7 5.7 -0.5 8.2 -0.4 7.7 0.3 -5.5 9.1 -18.5 29.5 -21.9 34.3 -4.1 5.8 -4.7 6.3 -7.2 5.6 -8.7 -2.7 -15.4 0.4 -19.5 8.9 -6.2 12.8 -3.1 25.5 5 20.2 2.4 -1.5 9.7 -10.8 13.2 -16.7 0.9 -1.6 2.2 -2.6 2.8 -2.4 2.3 0.9 4.7 -1.9 4 -4.7 -0.5 -2.1 0.5 -4.2 5 -10.9 3.1 -4.6 6.3 -9 7.2 -9.8 1.7 -1.8 2 -2.8 -3.3 14 -4.1 12.9 -5.8 26.8 -3.5 29.5 2.6 3.1 5.8 1.7 12.6 -5.3 18.5 -19.3 31.7 -44.7 28.5 -55.3 -1.2 -4 -5.8 -8.5 -9.7 -9.5 -2.6 -0.7 -3.1 -2.3 -1.3 -4.1 1.8 -1.8 0.7 -5.8 -1.8 -6.1 -1.8 -0.3 -2.9 0.7 -5 4.1 l-2.8 4.4 -8 0.6 c-9.4 0.6 -23.9 5 -33.4 10.2 -3.6 1.9 -6.6 3.3 -6.7 3.2 -0.2 -0.2 1.5 -5.2 3.7 -11.2 6 -16.6 13.6 -41.2 15.4 -50.4 1.9 -9.4 1.4 -14.4 -1.8 -16.6 -11.2 -7.9 -36.3 16 -82.8 78.6 l-13.1 17.5 -37.6 1.3 c-24.2 0.8 -38.1 1.6 -39 2.3 -0.7 0.6 -1.2 2.1 -1 3.2 0.2 1.7 0.9 2 3.3 1.8 16 -1.5 28.2 0.7 37.8 6.7 6.9 4.4 8.9 8.2 8.5 15.7 -0.4 7 -4 13.4 -9 16 -1.8 0.9 -2.8 2.2 -2.8 3.7 0 5.9 6.3 6.4 11.6 1 3.7 -3.9 18 -22.7 29.9 -39.5 l6.9 -9.8 15.6 0 c8.5 0 18.5 0.3 22.2 0.6 l6.6 0.7 -4.4 5.4 c-4.1 5 -9.4 14.2 -9.4 16 0 0.4 1.5 -2 3.4 -5.4 1.8 -3.4 5.2 -8.5 7.6 -11.3 l4.2 -5 5.2 0.6 c2.8 0.4 5.5 1 5.9 1.4 0.4 0.4 -2.3 8.7 -6.1 18.6 -3.8 9.8 -7.1 18.7 -7.5 19.7 -0.6 1.6 -0.9 1.6 -4.4 0.2 -2.1 -0.8 -5 -2.9 -6.5 -4.5 -1.6 -1.7 -2.8 -2.6 -2.8 -2.1 0 1.5 6.9 7 9.6 7.7 2 0.5 2.5 1.2 2.1 2.8 -0.2 1.1 -5.9 15.8 -12.5 32.6 -26.8 68.1 -33.2 88.6 -29 92.8 1.4 1.4 1.2 1.4 3.2 0.6z m313.3 -86.9 l2.2 4.9 2.1 -4.9 c5.5 -12.9 5.7 -13.5 4.1 -13.5 -0.4 0 -2.1 2.8 -3.6 6.3 l-2.7 6.2 -2.6 -6.2 c-1.4 -3.5 -3.1 -6.3 -3.8 -6.3 -1 0 -1.1 0.7 -0.3 2.9 0.7 2.1 0.6 3.7 -0.4 6.2 l-1.5 3.4 -2.8 -6.2 c-1.5 -3.5 -3.2 -6.3 -3.7 -6.3 -1.3 0 -0.3 3.6 3.4 11.6 l3 6.9 2.2 -4.9 2.1 -5 2.3 4.9z m113 -4.2 c3.6 -8.2 3.8 -9.3 2.3 -9.3 -0.9 0 -1.9 2 -5.2 10 -1 2.4 -1.2 2.2 -3.9 -3.7 -1.5 -3.5 -3.3 -6.3 -4 -6.3 -0.6 0 -0.9 0.6 -0.6 1.3 3.1 8 7.1 16.6 7.5 16.2 0.3 -0.3 2 -3.9 3.9 -8.2z m59.5 6.1 c2.6 -2.4 3.3 -7.6 1.4 -11.2 -4.9 -9.5 -19.7 -2 -15.6 7.9 2.4 5.6 9.7 7.3 14.2 3.3z m-146.2 0.6 c0 -0.5 -1.8 -1 -4 -1 -3.8 0 -4 -0.2 -4 -3 0 -2.8 0.3 -3 3.5 -3 1.9 0 3.5 -0.4 3.5 -1 0 -0.5 -1.6 -1 -3.5 -1 -2.8 0 -3.5 -0.4 -3.5 -2 0 -1.7 0.7 -2 4 -2 2.9 0 4 -0.4 4 -1.6 0 -1.2 -1 -1.4 -5.2 -1.2 l-5.3 0.3 -0.3 8.3 -0.3 8.2 5.6 0 c3 0 5.5 -0.4 5.5 -1z m18.2 -0.7 c2.2 -2 2.3 -4.6 0.3 -6.3 -1.1 -0.9 -1.3 -1.6 -0.5 -2.4 3 -3 -0.6 -6.6 -6.6 -6.6 l-4.4 0 0 8.5 0 8.5 4.7 0 c2.9 0 5.3 -0.6 6.5 -1.7z m31.2 -0.4 c2.6 -2.1 3.5 -6.5 2 -10.4 -0.9 -2.3 -5.7 -4.5 -9.9 -4.5 l-3.5 0 0 8.5 0 8.5 4.4 0 c2.9 0 5.2 -0.7 7 -2.1z m20.6 1.1 c0 -0.5 -2 -1 -4.5 -1 -4.3 0 -4.5 -0.1 -4.5 -3 0 -2.8 0.2 -3 4 -3 2.2 0 4 -0.4 4 -1 0 -0.5 -1.8 -1 -4 -1 -3.3 0 -4 -0.3 -4 -1.9 0 -1.6 0.8 -2 4.3 -2.3 5.9 -0.4 5.2 -2.2 -1 -2.6 l-5.3 -0.3 0 8.5 0 8.6 5.5 0 c3 0 5.5 -0.4 5.5 -1z m37 0 c0 -0.5 -1.8 -1 -4 -1 -3.8 0 -4 -0.2 -4 -3 0 -2.8 0.3 -3 3.5 -3 1.9 0 3.5 -0.4 3.5 -1 0 -0.5 -1.6 -1 -3.5 -1 -2.8 0 -3.5 -0.4 -3.5 -1.9 0 -1.6 0.8 -2 3.7 -2.3 2 -0.2 3.8 -0.9 4.1 -1.6 0.3 -1 -0.9 -1.2 -4.9 -1 l-5.4 0.3 -0.3 8.3 -0.3 8.2 5.6 0 c3 0 5.5 -0.4 5.5 -1z m19 0 c0 -0.5 -2.2 -1 -5 -1 l-5 0 0 -7.5 c0 -4.3 -0.4 -7.5 -1 -7.5 -0.6 0 -1 3.5 -1 8.5 l0 8.5 6 0 c3.3 0 6 -0.4 6 -1z m32 -1.5 c0 -2.1 0.5 -2.5 3 -2.5 4.1 0 8.4 -4.2 7.5 -7.3 -1 -3.3 -3.4 -4.7 -8.2 -4.7 l-4.3 0 0 8.5 c0 5 0.4 8.5 1 8.5 0.6 0 1 -1.1 1 -2.5z m28 1.5 c0 -0.5 -2 -1 -4.5 -1 -4.3 0 -4.5 -0.1 -4.5 -3 0 -2.8 0.2 -3 4 -3 2.2 0 4 -0.4 4 -1 0 -0.5 -1.8 -1 -4 -1 -3.3 0 -4 -0.3 -4 -1.9 0 -1.6 0.8 -2 4.3 -2.3 5.9 -0.4 5.2 -2.2 -1 -2.6 l-5.3 -0.3 0 8.5 0 8.6 5.5 0 c3 0 5.5 -0.4 5.5 -1z m9 -1.5 c0 -2 0.5 -2.5 2.5 -2.5 1.5 0 3.1 0.9 4.1 2.5 0.9 1.4 2.3 2.5 3 2.5 2 0 1.7 -1.4 -0.6 -3.5 l-2 -1.8 2 -1.4 c1.2 -0.9 2 -2.5 2 -4.3 0 -4 -3.5 -6.2 -9.2 -5.8 l-4.3 0.3 -0.3 8.3 c-0.2 6.8 0 8.2 1.3 8.2 0.9 0 1.5 -0.9 1.5 -2.5z m2.9 -47.4 c3.8 -2 22.2 -20.5 24.3 -24.5 0.6 -1.2 -3 2 -7.9 7 -9.9 9.9 -17.4 15.4 -21 15.4 -4.6 0 -4.2 -7.3 0.5 -9.1 5.6 -2 7.6 -3.5 10.4 -7.8 3.3 -5.3 3.6 -8.6 0.8 -10.1 -2.9 -1.5 -5.8 -0.4 -10.3 3.9 -8.4 7.9 -11.9 21.1 -6.8 25.2 2.9 2.4 5.2 2.4 10 0z m-511.2 -9.8 c-0.3 -1 -0.5 -0.2 -0.5 1.7 0 1.9 0.2 2.7 0.5 1.8 0.2 -1 0.2 -2.6 0 -3.5z m188.2 -27.9 c1.7 -6.1 -2.2 -10 -5.5 -5.6 -1.8 2.3 -1.7 5.2 0.3 7.4 2.5 2.7 4.1 2.2 5.2 -1.8z"/>
  <path d="M599 430 c0 -0.6 0.5 -2 1 -3.1 1 -1.8 2.5 -1.9 40.3 -1.8 21.6 0.1 50.5 0.5 64.2 0.8 l25 0.6 -25 0.8 c-73.2 2.3 -84.9 2.7 -94.7 3.3 -8 0.5 -10.8 0.3 -10.8 -0.6z"/>
  <path d="M597 411.6 c-12.7 -4.7 -24.4 -13.4 -29.4 -22 -7.4 -12.7 -7.3 -25.9 0.4 -42.1 10.4 -21.7 30.5 -39.2 59 -51.4 9.9 -4.2 25.6 -8.8 26.6 -7.9 0.3 0.3 -3.5 8.7 -8.5 18.5 -16.2 32.4 -42.1 88.9 -42.1 91.9 0 0.7 0.7 1.7 1.7 2.2 1.5 0.9 1.4 1.4 -0.7 6.6 -1.2 3.1 -2.5 5.6 -2.9 5.5 -0.3 0 -2.2 -0.6 -4.1 -1.3z"/>
  <path d="M532.4 410.6 c-0.6 -1.7 1.1 -4.6 2.8 -4.6 1.4 0 0.5 5.3 -0.9 5.8 -0.7 0.2 -1.6 -0.4 -1.9 -1.2z"/>
  <path d="M397.3 405.4 c-1 -2.7 0.7 -12.4 3.9 -22.3 3.5 -10.6 19.3 -43 21.4 -43.8 2.2 -0.8 9.2 3.8 10.5 6.9 1.9 4.7 0.5 13.9 -3.5 22.4 -4.4 9.3 -13.7 22.8 -21.6 31.7 -6.1 6.7 -9.5 8.3 -10.7 5.1z"/>
  <path d="M812.4 405 c0.8 -2.9 7.9 -18 8.3 -17.6 0.2 0.2 -1.6 4.6 -4.2 9.7 -2.5 5.2 -4.3 8.7 -4.1 7.9z"/>
  <path d="M430.7 404.3 c-0.4 -0.3 -0.7 -2.3 -0.7 -4.2 0 -6.3 7.1 -14.1 12.7 -14.1 1.1 0 1.4 0.3 0.7 0.8 -0.6 0.4 -1.7 1.8 -2.4 3.1 -1.1 2.1 -1 2.6 0.5 3.7 1.6 1.2 1.6 1.5 -0.4 4.3 -3.8 5.3 -8.6 8.3 -10.4 6.4z"/>
  <path d="M625.5 403.6 c-0.5 -0.2 -3.6 -0.9 -6.7 -1.6 -3.5 -0.7 -5.8 -1.7 -5.8 -2.4 0 -0.7 10.3 -23.8 22.9 -51.2 12.5 -27.5 24 -52.7 25.6 -56.1 l2.7 -6.2 6.2 -0.6 c3.3 -0.4 10.1 -0.1 14.9 0.5 25.7 3.2 41.3 17.1 42.5 38 1.8 30.5 -29.6 66 -68.3 77.2 -4.9 1.4 -10.9 2.1 -20 2.4 -7.1 0.2 -13.4 0.2 -14 0z"/>
  <path d="M369 399.5 c0 -5.4 5.8 -13.5 9.6 -13.5 3.8 0 3.6 1.6 -0.8 7 -2.4 2.9 -4.9 6.1 -5.7 7.1 -1.9 2.6 -3.1 2.4 -3.1 -0.6z"/>
  <path d="M265.6 397.8 c-0.2 -0.7 -0.9 -3.2 -1.5 -5.6 -1.5 -5.5 -7.5 -11.4 -15.2 -15 -3.3 -1.5 -5.9 -3 -5.9 -3.3 0 -1.1 8.9 -1.9 27 -2.6 15 -0.5 17.3 -0.4 16.4 0.8 -0.6 0.8 -5.2 7.1 -10.3 14.2 -5.1 7 -9.5 12.7 -9.7 12.7 -0.3 0 -0.6 -0.6 -0.8 -1.2z"/>
  <path d="M607.4 396.3 c0.4 -1.2 3.9 -8.7 7.7 -16.5 8.3 -16.9 8.3 -16.3 -0.1 2.7 -5.7 12.9 -9.3 19.4 -7.6 13.8z"/>
  <path d="M350.1 368.1 c-2.3 -0.6 -2 -1 4.3 -6 3.7 -2.9 6.9 -5.2 7.1 -4.9 0.2 0.2 -0.5 3 -1.7 6.1 -2.2 6.1 -3.3 6.6 -9.7 4.8z"/>
  <path d="M301.4 366.3 c1.1 -2.8 25.4 -35.7 38.6 -52.1 19.5 -24.4 34.2 -38.2 40.7 -38.2 2.1 0 2.3 0.4 2.3 5.6 0 8.5 -4.4 26.4 -12.2 50.2 l-7 21.2 -6.2 4.9 c-3.3 2.7 -7.2 6.1 -8.5 7.5 l-2.4 2.6 -23 0 c-21.1 0 -22.9 -0.1 -22.3 -1.7z"/>
  <path d="M823.4 363.5 c-1.9 -1.4 -1.8 -1.4 0.4 -1.5 1.3 0 2.2 0.6 2.2 1.5 0 1.9 -0.1 1.9 -2.6 0z"/>
  <path d="M776.6 454.4 c-0.9 -0.8 -1.6 -3.1 -1.6 -4.9 0 -5.8 6.7 -8.7 10.5 -4.5 2.4 2.7 2.4 7.9 0 9.6 -2.5 1.9 -7 1.8 -8.9 -0.2z"/>
  <path d="M650 453 c0 -2.7 0.3 -3 3.4 -3 4.1 0 6.5 2.3 4.6 4.5 -0.7 0.8 -2.8 1.5 -4.6 1.5 -3.1 0 -3.4 -0.3 -3.4 -3z"/>
  <path d="M650 446.1 c0 -1.7 0.6 -2.1 3.6 -2.1 2.8 0 3.5 0.3 3.2 1.8 -0.2 1.1 -1.4 1.8 -3.6 2 -2.7 0.3 -3.2 0 -3.2 -1.7z"/>
  <path d="M681 450 l0 -6 3.3 0 c6 0 8.8 5.9 4.7 10 -1.1 1.1 -3.3 2 -5 2 l-3 0 0 -6z"/>
  <path d="M799 447 c0 -3 0.2 -3.1 3.8 -2.8 3.2 0.3 3.7 0.6 3.7 2.8 0 2.2 -0.5 2.5 -3.7 2.8 -3.6 0.3 -3.8 0.2 -3.8 -2.8z"/>
  <path d="M836 447 c0 -2.8 0.2 -3 3.9 -3 4.4 0 5.5 1 4.6 4 -0.5 1.6 -1.5 2 -4.6 2 -3.7 0 -3.9 -0.2 -3.9 -3z"/>
 </g>
</svg>