<svg xmlns="http://www.w3.org/2000/svg" width="67.024" height="59.577" viewBox="0 0 67.024 59.577">
  <path id="Icon_awesome-brain" data-name="Icon awesome-brain" d="M24.2,0a7.425,7.425,0,0,0-7.191,5.609c-.093,0-.163-.023-.256-.023a7.454,7.454,0,0,0-7.447,7.447,6.862,6.862,0,0,0,.2,1.629A9.229,9.229,0,0,0,4.689,27.333a9.274,9.274,0,0,0,1.059,16.64,8.527,8.527,0,0,0-.163,1.641,8.373,8.373,0,0,0,8.378,8.378,7.889,7.889,0,0,0,1.4-.14A8.358,8.358,0,0,0,31.65,51.2V7.447A7.454,7.454,0,0,0,24.2,0ZM67.024,35.374a9.261,9.261,0,0,0-4.689-8.041,9.158,9.158,0,0,0,.966-4.061,9.309,9.309,0,0,0-5.783-8.611,7.378,7.378,0,0,0-7.249-9.076c-.093,0-.175.023-.256.023A7.433,7.433,0,0,0,35.374,7.447V51.2a8.358,8.358,0,0,0,16.291,2.653,7.889,7.889,0,0,0,1.4.14,8.373,8.373,0,0,0,8.378-8.378,8.527,8.527,0,0,0-.163-1.641A9.309,9.309,0,0,0,67.024,35.374Z" fill="#6e00ff"/>
</svg>
