<!DOCTYPE svg PUBLIC "-//W3C//DTD SVG 20010904//EN" "http://www.w3.org/TR/2001/REC-SVG-20010904/DTD/svg10.dtd">
<svg version="1.0" xmlns="http://www.w3.org/2000/svg" width="1080px" height="810px" viewBox="0 0 10800 8100" preserveAspectRatio="xMidYMid meet">
<g id="layer101" fill="#ffffff" stroke="none">
<path d="M0 4050 l0 -4050 5400 0 5400 0 0 4050 0 4050 -5400 0 -5400 0 0 -4050z"/>
</g>
<g id="layer102" fill="#ffffff" stroke="none">
<path d="M0 4050 l0 -4050 5400 0 5400 0 0 4050 0 4050 -5400 0 -5400 0 0 -4050z m3014 1364 c12 -5 16 -20 16 -64 0 -98 75 -345 229 -755 33 -87 57 -163 55 -167 -3 -4 0 -8 6 -8 6 0 9 -4 6 -9 -4 -5 -3 -11 2 -13 13 -5 53 -119 45 -130 -3 -7 -1 -8 5 -4 11 6 17 -12 13 -36 0 -5 4 -8 10 -8 6 0 9 -7 5 -15 -3 -8 -1 -15 4 -15 6 0 10 -9 10 -19 0 -12 11 -23 28 -29 16 -6 20 -11 10 -11 -17 -1 -22 -41 -5 -41 5 0 7 -7 3 -15 -3 -8 -1 -15 5 -15 6 0 8 -8 5 -17 -4 -10 -4 -14 0 -10 9 9 46 -82 38 -95 -3 -4 -1 -8 4 -8 11 0 35 -60 24 -60 -4 0 -1 -4 6 -9 8 -5 15 -20 15 -35 1 -14 5 -26 9 -26 3 0 12 -16 18 -36 12 -34 14 -36 49 -29 20 3 59 13 87 22 55 17 84 13 84 -11 0 -22 -30 -35 -115 -47 -63 -10 -75 -14 -70 -28 46 -125 51 -134 88 -157 20 -14 37 -29 37 -35 0 -7 -11 -4 -26 6 -14 9 -27 15 -29 13 -2 -2 14 -53 36 -113 99 -273 160 -491 162 -583 2 -56 -1 -66 -22 -83 -106 -86 -352 141 -800 738 l-166 223 -115 0 c-63 1 -133 3 -155 5 -22 2 -139 6 -260 10 -132 4 -225 11 -233 17 -7 6 -12 21 -10 32 2 16 9 20 28 18 94 -11 200 -4 265 16 161 49 232 133 203 242 -13 48 -56 108 -90 126 -18 9 -28 22 -28 37 0 56 62 64 111 15 33 -34 177 -223 304 -401 l70 -98 185 2 c102 1 202 4 223 7 l39 4 -34 36 c-18 19 -26 31 -18 26 8 -4 26 -21 39 -37 22 -27 27 -28 75 -22 28 4 54 10 59 14 7 7 -10 58 -96 281 -36 93 -48 115 -63 113 -11 -1 -13 0 -6 3 6 3 12 12 12 19 0 7 -41 116 -91 241 -227 571 -339 890 -339 967 0 26 15 67 25 67 2 0 10 -3 19 -6z m3126 -881 c14 38 43 48 46 17 1 -8 2 -21 3 -28 1 -8 6 -10 14 -6 6 4 9 4 5 -1 -4 -4 -3 -14 3 -22 6 -7 9 -13 5 -13 -4 0 0 -13 9 -30 9 -17 11 -30 5 -30 -5 0 -12 11 -16 25 -3 14 -11 25 -18 25 -6 0 -4 5 4 10 13 8 12 10 -4 10 -11 0 -16 3 -13 7 4 3 2 12 -4 20 -9 10 -18 0 -40 -47 -31 -65 -45 -77 -36 -30 4 16 2 43 -4 59 -9 26 -14 29 -30 21 -15 -8 -19 -7 -19 5 0 8 5 15 12 15 6 0 8 3 5 6 -3 4 -2 16 4 26 10 18 13 15 33 -28 l23 -49 13 38z m1117 15 c10 -24 16 -49 15 -57 -2 -7 1 -11 6 -7 5 3 9 0 10 -7 0 -7 4 -23 7 -37 6 -21 3 -19 -15 9 -12 19 -26 46 -32 60 l-10 26 -16 -30 c-9 -16 -16 -32 -15 -35 1 -3 -7 -17 -18 -30 l-20 -25 6 25 c8 31 57 150 62 150 2 0 11 -19 20 -42z m615 5 c17 -15 30 -96 14 -86 -5 4 -7 -1 -3 -10 8 -21 -33 -47 -76 -47 -23 0 -41 8 -56 24 -23 24 -35 83 -19 92 5 3 6 9 4 13 -3 4 6 14 19 21 14 7 25 17 25 21 0 11 72 -11 92 -28z m-1462 17 c0 -5 -18 -10 -40 -10 -38 0 -40 -2 -40 -30 0 -28 3 -30 35 -30 19 0 35 -4 35 -10 0 -5 -16 -10 -35 -10 -27 0 -35 -4 -35 -18 0 -10 -6 -27 -14 -37 -11 -16 -13 -7 -14 68 l0 87 54 0 c30 0 54 -4 54 -10z m182 -7 c22 -19 23 -46 4 -62 -10 -9 -12 -20 -7 -39 11 -37 -7 -52 -64 -52 l-45 0 0 85 0 85 47 0 c29 0 53 -6 65 -17z m299 7 c10 -6 19 -18 19 -26 0 -8 4 -13 8 -10 4 2 9 -11 10 -30 2 -19 -2 -34 -8 -34 -5 0 -10 11 -10 25 0 34 -33 65 -70 65 l-30 0 0 -64 c0 -42 4 -66 13 -69 6 -3 2 -6 -10 -6 -22 -1 -23 2 -23 79 l0 80 41 0 c22 0 49 -5 60 -10z m219 0 c0 -5 -20 -10 -45 -10 -43 0 -45 -1 -45 -30 0 -28 2 -30 40 -30 22 0 40 -4 40 -10 0 -5 -18 -10 -40 -10 -33 0 -40 -3 -40 -20 0 -20 10 -24 61 -20 17 1 26 -4 26 -14 0 -19 -27 -22 -28 -3 0 10 -2 10 -6 0 -2 -7 -20 -13 -39 -13 l-34 0 0 85 0 85 55 0 c30 0 55 -4 55 -10z m370 0 c0 -5 -18 -10 -40 -10 -28 0 -40 -4 -40 -14 0 -8 -3 -21 -6 -30 -5 -13 2 -16 35 -16 51 0 54 -18 4 -22 -30 -2 -38 -7 -39 -23 -1 -17 4 -20 41 -17 33 3 42 0 42 -13 0 -13 -10 -15 -52 -13 l-53 3 1 82 0 83 54 0 c29 0 53 -4 53 -10z m190 0 c0 -5 -22 -10 -50 -10 l-50 0 -1 -52 c-1 -29 -1 -58 0 -65 1 -6 -2 -14 -7 -17 -5 -3 -10 30 -11 74 l-2 80 60 0 c34 0 61 -4 61 -10z m322 -17 c3 -24 7 -28 34 -27 19 1 31 -4 31 -12 0 -7 -3 -13 -6 -12 -3 0 -18 0 -33 -1 -24 -1 -28 -5 -28 -31 0 -29 4 -32 43 -33 22 -1 47 15 47 29 0 8 -5 14 -11 14 -8 0 -9 4 0 13 6 8 10 16 8 18 -1 2 -1 4 0 4 1 0 1 -2 1 -5 1 -3 5 -16 10 -31 17 -43 -1 -59 -63 -59 l-55 0 0 80 c0 44 4 80 9 80 5 0 11 -12 13 -27z m268 17 c0 -5 -18 -10 -40 -10 -38 0 -40 -2 -40 -30 0 -28 2 -30 40 -30 22 0 40 -4 40 -10 0 -5 -18 -10 -40 -10 -33 0 -40 -3 -40 -20 0 -11 5 -20 11 -20 5 0 7 -6 3 -12 -6 -10 -5 -10 7 -1 17 14 66 12 66 -3 0 -6 -23 -12 -54 -13 l-53 -2 0 86 0 85 50 0 c28 0 50 -4 50 -10z m113 -51 c22 -2 22 -2 0 -6 -19 -4 -23 -11 -23 -44 l0 -39 44 0 c24 0 48 6 54 13 13 17 -3 56 -27 65 -20 7 -20 8 5 40 14 17 30 32 36 32 7 0 1 -11 -11 -24 l-23 -25 22 -36 c21 -34 22 -37 5 -55 -13 -15 -31 -20 -67 -20 l-48 0 2 83 c0 45 3 67 5 50 3 -25 9 -33 26 -34z m-2445 -74 c19 -50 36 -91 36 -92 4 -6 142 -12 391 -18 154 -3 334 -8 400 -10 248 -8 1242 -8 1254 -1 7 5 18 3 24 -3 7 -7 55 -11 128 -11 124 0 149 -4 149 -25 0 -19 -23 -25 -134 -31 -55 -4 -102 -8 -104 -9 -1 -1 30 -68 68 -149 62 -127 84 -187 142 -376 6 -19 22 -52 35 -72 l23 -38 148 0 c102 0 152 4 160 12 9 9 15 9 24 0 26 -26 -10 -35 -156 -40 -80 -3 -146 -7 -146 -9 0 -2 22 -36 49 -76 64 -95 111 -180 111 -200 0 -8 -10 -19 -21 -22 -32 -11 -78 42 -154 175 -36 63 -66 118 -67 123 -2 4 -54 9 -116 10 -116 3 -137 11 -125 45 5 11 18 13 62 8 60 -7 116 6 125 29 2 7 -15 57 -39 111 -51 113 -120 192 -199 230 -80 37 -82 28 -25 -104 35 -83 39 -97 26 -110 -9 -8 -23 -11 -35 -8 -19 6 -123 108 -177 174 -15 18 -29 31 -32 28 -2 -2 12 -36 31 -75 39 -76 45 -115 20 -125 -23 -9 -31 -1 -59 53 -13 27 -56 78 -99 118 -104 97 -175 128 -184 80 -7 -38 7 -64 37 -70 44 -9 109 -72 123 -119 11 -36 10 -42 -8 -55 -45 -33 -122 22 -175 123 -34 66 -83 114 -116 114 -39 0 -31 -86 15 -178 22 -43 24 -54 13 -62 -23 -14 -33 -4 -95 87 -65 95 -123 163 -138 163 -19 0 1 -84 38 -157 30 -60 34 -75 24 -88 -7 -8 -19 -15 -26 -15 -33 0 -104 157 -104 230 0 44 32 90 62 90 32 0 74 -30 110 -77 l32 -44 16 33 c19 42 66 50 109 19 l29 -21 5 30 c4 16 18 37 32 46 40 26 90 6 174 -72 39 -36 71 -64 71 -61 0 2 -7 21 -15 40 -22 52 -20 94 5 102 16 5 41 -15 125 -102 59 -59 104 -99 101 -88 -11 46 -16 99 -11 117 17 52 84 36 173 -40 l59 -51 -53 137 c-29 75 -54 145 -54 155 0 17 -11 18 -202 12 -112 -4 -225 -8 -253 -10 -27 -2 -291 -6 -585 -9 -561 -7 -780 -14 -778 -24 3 -25 -8 -31 -59 -37 -84 -11 -85 -12 -61 -68 19 -43 24 -48 47 -44 247 44 299 44 467 2 285 -72 546 -283 662 -535 48 -105 62 -159 62 -248 0 -269 -225 -451 -557 -452 -51 0 -93 -3 -93 -6 0 -4 8 -28 17 -56 16 -43 16 -50 3 -58 -8 -5 -19 -8 -25 -7 -8 3 -39 49 -83 124 -4 7 -59 25 -123 41 -378 96 -707 336 -829 606 -48 105 -63 179 -57 286 l5 95 -31 28 c-17 15 -26 27 -19 27 6 0 14 -4 17 -10 3 -5 15 -15 25 -20 17 -9 23 -4 46 42 55 108 191 218 327 264 46 15 60 31 35 38 -7 3 -258 7 -558 11 -300 3 -585 8 -635 10 -49 2 -191 6 -315 10 -313 8 -437 17 -560 41 l-35 7 48 -37 c79 -62 59 -106 -49 -106 -60 0 -56 16 7 22 82 8 81 20 -5 77 -42 27 -86 53 -96 56 -22 7 -28 45 -7 45 6 0 30 -5 52 -10 136 -32 315 -47 665 -55 124 -3 261 -8 305 -10 44 -2 324 -7 623 -11 571 -8 556 -9 532 36 -11 20 -41 25 -210 35 -174 10 -454 38 -499 49 -54 14 -73 43 -20 32 50 -10 163 -24 254 -30 44 -4 107 -8 140 -11 135 -10 305 -17 305 -12 0 3 -14 42 -30 87 -29 78 -31 105 -8 98 6 -2 26 -44 46 -93z m135 49 c-7 -3 -17 -21 -23 -40 -6 -19 -15 -34 -20 -34 -5 0 -1 18 7 40 10 24 22 40 32 39 9 0 11 -3 4 -5z m347 -69 c0 -11 -11 -15 -40 -15 -29 0 -40 4 -40 15 0 11 11 15 40 15 29 0 40 -4 40 -15z m-1030 -304 c5 -11 10 -41 10 -68 0 -42 4 -52 32 -76 21 -18 25 -24 11 -18 -12 6 -25 16 -28 21 -12 20 -27 9 -47 -37 -19 -43 -19 -48 -5 -79 9 -18 29 -41 44 -51 38 -24 43 -34 31 -56 -20 -38 -96 2 -128 68 -29 61 -173 188 -242 214 -27 10 -28 9 -28 -19 0 -40 33 -108 76 -158 34 -41 37 -65 7 -76 -24 -10 -61 20 -91 72 -47 81 -142 162 -191 162 -30 0 -27 -24 14 -113 52 -113 42 -152 -28 -108 -28 17 -62 52 -190 196 -5 6 -7 4 -5 -5 2 -8 6 -17 9 -20 12 -10 69 -135 69 -150 0 -19 -19 -40 -37 -40 -7 0 -22 18 -33 40 -15 29 -34 47 -70 65 -59 30 -80 32 -80 6 0 -11 -5 -23 -11 -27 -8 -4 -8 -9 0 -17 19 -19 12 -47 -14 -59 -56 -25 -149 33 -190 118 -41 86 -28 162 32 185 55 21 116 -23 158 -113 13 -26 28 -38 68 -53 29 -11 56 -21 60 -23 4 -2 1 13 -9 34 -9 22 -23 60 -32 87 -15 44 -15 49 1 64 24 24 41 12 147 -105 51 -56 94 -101 96 -99 2 1 -1 20 -6 42 -22 95 -4 141 49 125 43 -12 73 -29 109 -63 l32 -31 0 57 c0 49 3 59 25 73 15 10 32 13 47 9 30 -9 97 -62 175 -138 l62 -61 11 28 c5 15 10 30 10 33 0 3 10 19 22 36 21 29 21 31 5 59 -16 28 -22 69 -13 79 14 14 56 7 66 -10z m-1658 -50 c18 -16 56 -63 83 -105 28 -41 55 -74 62 -71 22 7 46 -21 40 -46 -4 -16 2 -38 20 -69 15 -25 27 -47 27 -50 1 -3 5 -3 11 -2 5 2 7 1 4 -3 -4 -3 2 -16 12 -28 10 -12 28 -33 40 -47 24 -30 25 -34 -26 128 -42 137 -55 251 -31 288 19 28 38 31 57 7 13 -15 12 -15 -8 -2 -30 18 -45 3 -43 -47 3 -75 5 -94 13 -94 4 0 7 -9 7 -20 0 -59 204 -504 237 -517 21 -8 91 39 104 69 7 17 10 54 7 92 -6 73 -58 182 -145 303 -29 41 -53 79 -53 85 0 10 15 -5 70 -69 5 -7 10 -17 10 -23 0 -5 5 -10 10 -10 6 0 10 -7 10 -15 0 -8 5 -15 10 -15 6 0 10 -7 10 -15 0 -8 4 -15 10 -15 5 0 12 -11 16 -25 3 -14 10 -25 16 -25 5 0 6 -4 3 -10 -3 -5 -2 -10 4 -10 10 0 27 -38 23 -52 -1 -5 3 -8 9 -8 6 0 9 -6 6 -14 -3 -8 -2 -16 3 -18 18 -6 32 -116 20 -153 -13 -38 -59 -82 -96 -91 -26 -7 -31 -23 -13 -41 18 -18 7 -58 -18 -61 -18 -3 -29 7 -50 42 -27 45 -29 46 -78 46 -27 1 -70 5 -95 11 -25 5 -51 10 -57 11 -7 1 -13 5 -13 9 0 4 -9 6 -20 4 -11 -2 -22 1 -25 6 -4 5 -10 7 -15 4 -5 -3 -11 -1 -15 5 -4 6 -11 8 -16 5 -5 -4 -9 -2 -9 3 0 6 7 13 16 16 8 3 12 2 9 -4 -3 -6 3 -11 14 -11 12 -1 24 -2 29 -3 46 -11 147 -26 184 -29 l48 -4 -22 36 c-12 20 -57 91 -100 159 -43 67 -75 122 -71 122 3 0 -5 10 -19 23 -13 12 -33 37 -43 54 -18 30 -19 30 -51 17 -45 -19 -68 -18 -114 6 -48 24 -86 85 -101 163 -13 61 -7 97 17 121 22 23 39 20 76 -13z m4661 12 c34 -17 167 -141 167 -154 0 -5 -36 20 -80 56 -80 64 -116 82 -145 71 -26 -10 -11 -86 16 -86 31 0 85 -38 110 -79 34 -53 37 -86 9 -101 -29 -15 -58 -4 -103 39 -84 79 -119 211 -68 252 29 23 52 24 94 2z m-3224 -379 c17 -61 -22 -100 -55 -56 -18 23 -17 52 3 74 25 27 41 22 52 -18z"/>
<path d="M2657 3984 c-4 -4 -7 -19 -7 -32 0 -62 -97 -161 -187 -193 -70 -24 -31 -33 182 -45 69 -4 123 -12 127 -18 5 -7 8 -7 8 2 0 9 9 12 28 9 69 -11 66 1 -34 138 -108 147 -108 148 -117 139z"/>
<path d="M3480 3678 c0 -4 14 -16 30 -28 17 -12 30 -26 30 -31 0 -6 -17 6 -37 25 l-38 36 -229 0 c-210 0 -228 -1 -222 -17 11 -28 254 -357 386 -521 195 -244 342 -382 407 -382 21 0 23 4 23 53 0 102 -47 290 -140 562 -46 134 -56 154 -92 188 -23 20 -38 37 -33 37 5 0 17 -7 27 -17 28 -25 29 -13 6 50 l-21 57 -48 -2 c-27 -2 -49 -6 -49 -10z"/>
<path d="M7765 4544 c-29 -29 -26 -67 7 -96 43 -38 103 -5 106 57 2 24 -4 34 -27 48 -39 23 -56 21 -86 -9z"/>
<path d="M6500 4530 c0 -30 1 -31 43 -29 32 2 44 7 44 18 0 27 -18 41 -53 41 -31 0 -34 -3 -34 -30z"/>
<path d="M6500 4460 c0 -11 5 -20 11 -20 5 0 7 -5 4 -11 -4 -6 3 -5 14 3 18 11 23 11 30 -1 7 -11 10 -9 16 8 9 30 -1 41 -41 41 -27 0 -34 -4 -34 -20z"/>
<path d="M5990 4298 c0 -8 6 -22 13 -33 13 -17 41 -18 692 -12 373 4 679 8 682 10 7 7 -218 16 -407 17 -182 0 -617 13 -857 26 -103 5 -123 4 -123 -8z"/>
<path d="M6030 4200 c0 -12 24 -12 60 0 21 7 19 8 -17 9 -24 1 -43 -3 -43 -9z"/>
<path d="M8370 3893 c0 -12 38 -48 45 -41 3 2 -6 15 -20 28 -14 13 -25 19 -25 13z"/>
</g>
<g id="layer103" fill="#000000" stroke="none">
<path d="M0 4050 l0 -4050 5400 0 5400 0 0 4050 0 4050 -5400 0 -5400 0 0 -4050z m3014 1364 c12 -5 16 -20 16 -64 0 -116 94 -409 322 -1000 40 -102 75 -190 80 -196 6 -8 21 -9 46 -3 20 4 41 4 45 0 5 -5 -10 -11 -33 -14 -23 -3 -43 -7 -45 -9 -3 -2 30 -93 72 -202 l77 -197 36 6 c19 3 58 13 86 22 55 17 84 13 84 -11 0 -22 -28 -34 -111 -47 -41 -6 -75 -12 -77 -14 -5 -4 50 -139 62 -151 21 -23 132 -75 216 -104 78 -26 119 -34 222 -44 l38 -3 -22 36 c-52 86 -178 280 -214 332 -39 55 -40 55 -69 43 -97 -42 -191 33 -217 174 -18 98 20 155 78 117 24 -15 97 -108 132 -167 9 -16 22 -26 28 -24 23 9 47 -19 40 -47 -5 -21 5 -42 50 -109 31 -46 63 -90 72 -98 17 -18 20 -29 -33 140 -23 73 -38 145 -42 197 -6 90 2 113 42 113 62 0 298 -305 355 -458 12 -32 22 -83 23 -114 2 -67 -19 -102 -79 -133 -21 -11 -41 -21 -43 -23 -2 -1 1 -13 8 -26 18 -32 10 -60 -16 -64 -18 -3 -29 7 -49 41 l-27 44 -81 6 c-108 8 -212 39 -315 92 -47 24 -86 43 -88 42 -1 -2 16 -52 38 -112 99 -273 160 -491 162 -583 2 -56 -1 -66 -22 -83 -106 -86 -352 141 -800 738 l-166 223 -115 0 c-63 1 -133 3 -155 5 -22 2 -139 6 -260 10 -132 4 -225 11 -233 17 -7 6 -12 21 -10 32 2 16 9 20 28 18 151 -17 287 7 382 67 53 34 76 65 88 116 15 67 -32 170 -92 201 -18 9 -28 22 -28 37 0 56 62 64 111 15 33 -34 177 -223 304 -401 l70 -98 185 2 c102 1 202 4 223 7 l37 4 -35 42 c-53 61 -57 67 -53 72 3 2 26 -23 52 -57 l47 -61 52 7 c29 4 55 10 60 14 4 4 -6 43 -23 87 -75 204 -119 309 -127 308 -4 -1 -19 -4 -33 -7 -23 -6 -22 -5 3 5 15 7 27 17 27 24 0 7 -41 115 -91 240 -227 571 -339 890 -339 967 0 26 15 67 25 67 2 0 10 -3 19 -6z m3131 -871 c16 43 35 62 35 36 0 -6 6 -25 14 -42 24 -53 46 -109 46 -118 0 -26 -20 -2 -45 52 l-27 60 -28 -60 c-32 -68 -45 -78 -37 -28 4 17 0 46 -7 62 l-13 30 -28 -62 c-16 -35 -32 -63 -37 -63 -13 0 -10 12 18 81 44 109 43 108 68 53 l22 -49 19 48z m1127 -28 c35 -81 41 -105 29 -105 -10 0 -20 19 -53 100 -10 24 -12 22 -39 -37 -15 -35 -33 -63 -40 -63 -6 0 -9 6 -6 13 35 91 72 166 77 160 4 -4 18 -35 32 -68z m605 43 c8 -9 17 -34 20 -56 5 -35 2 -44 -22 -66 -63 -59 -158 -13 -150 71 5 54 43 83 97 73 22 -4 47 -14 55 -22z m-1467 12 c0 -5 -18 -10 -40 -10 -38 0 -40 -2 -40 -30 0 -28 3 -30 35 -30 19 0 35 -4 35 -10 0 -5 -16 -10 -35 -10 -28 0 -35 -4 -35 -20 0 -17 7 -20 40 -20 29 0 40 -4 40 -15 0 -11 -13 -15 -54 -15 l-53 0 -1 85 0 85 54 0 c30 0 54 -4 54 -10z m182 -7 c22 -19 23 -46 4 -62 -10 -9 -12 -20 -6 -41 11 -38 -4 -50 -62 -50 l-48 0 0 85 0 85 47 0 c29 0 53 -6 65 -17z m312 -4 c26 -21 35 -65 20 -104 -9 -23 -57 -45 -99 -45 l-35 0 0 85 0 85 44 0 c29 0 52 -7 70 -21z m206 11 c0 -5 -20 -10 -45 -10 -43 0 -45 -1 -45 -30 0 -28 2 -30 40 -30 22 0 40 -4 40 -10 0 -5 -18 -10 -40 -10 -33 0 -40 -3 -40 -20 0 -20 10 -24 61 -20 17 1 26 -4 26 -14 0 -13 -12 -16 -54 -16 l-53 0 0 85 0 85 55 0 c30 0 55 -4 55 -10z m370 0 c0 -5 -18 -10 -40 -10 -28 0 -40 -4 -40 -14 0 -8 -3 -21 -6 -30 -5 -13 2 -16 35 -16 51 0 54 -18 4 -22 -55 -4 -52 -32 5 -36 28 -2 42 -8 42 -18 0 -10 -14 -14 -54 -14 l-54 0 1 85 0 85 54 0 c29 0 53 -4 53 -10z m190 0 c0 -5 -22 -10 -50 -10 l-50 0 0 -75 c0 -43 -4 -75 -10 -75 -6 0 -10 35 -10 85 l0 85 60 0 c33 0 60 -4 60 -10z m322 -17 c3 -22 8 -26 38 -28 47 -1 57 -9 62 -46 7 -45 -20 -69 -77 -69 l-45 0 0 85 c0 47 4 85 9 85 5 0 11 -12 13 -27z m268 17 c0 -5 -18 -10 -40 -10 -38 0 -40 -2 -40 -30 0 -28 2 -30 40 -30 22 0 40 -4 40 -10 0 -5 -18 -10 -40 -10 -33 0 -40 -3 -40 -20 0 -20 2 -21 56 -23 18 -1 31 -6 31 -14 0 -9 -17 -13 -54 -13 l-53 0 0 85 0 85 50 0 c28 0 50 -4 50 -10z m100 -20 c0 -23 5 -30 19 -30 11 0 31 14 44 30 25 29 47 39 47 22 0 -5 -9 -17 -19 -26 -19 -17 -19 -18 0 -37 45 -45 9 -99 -68 -99 l-43 0 0 85 c0 50 4 85 10 85 6 0 10 -13 10 -30z m-2432 -105 c19 -50 36 -91 36 -92 4 -6 142 -12 391 -18 154 -3 334 -8 400 -10 248 -8 1242 -8 1254 -1 7 5 18 3 24 -3 7 -7 55 -11 128 -11 124 0 149 -4 149 -25 0 -19 -23 -25 -134 -31 -55 -4 -102 -8 -104 -9 -1 -1 30 -68 68 -149 62 -127 84 -187 142 -376 6 -19 22 -52 35 -72 l23 -38 148 0 c102 0 152 4 160 12 9 9 15 9 24 0 26 -26 -10 -35 -156 -40 -80 -3 -146 -7 -146 -9 0 -2 22 -36 49 -76 64 -95 111 -180 111 -200 0 -8 -10 -19 -21 -22 -32 -11 -78 42 -154 175 -36 63 -66 118 -67 123 -2 4 -54 9 -116 10 -116 3 -137 11 -125 45 5 11 18 13 62 8 60 -7 116 6 125 29 2 7 -15 57 -39 111 -51 113 -120 192 -199 230 -80 37 -82 28 -25 -104 35 -83 39 -97 26 -110 -9 -8 -23 -11 -35 -8 -19 6 -123 108 -177 174 -15 18 -29 31 -32 28 -2 -2 12 -36 31 -75 39 -76 45 -115 20 -125 -23 -9 -31 -1 -59 53 -13 27 -56 78 -99 118 -104 97 -175 128 -184 80 -7 -38 7 -64 37 -70 44 -9 109 -72 123 -119 11 -36 10 -42 -8 -55 -45 -33 -122 22 -175 123 -34 66 -83 114 -116 114 -39 0 -31 -86 15 -178 22 -43 24 -54 13 -62 -23 -14 -33 -4 -95 87 -65 95 -123 163 -138 163 -19 0 1 -84 38 -157 30 -60 34 -75 24 -88 -7 -8 -19 -15 -26 -15 -33 0 -104 157 -104 230 0 44 32 90 62 90 32 0 74 -30 110 -77 l32 -44 16 33 c19 42 66 50 109 19 l29 -21 5 30 c4 16 18 37 32 46 40 26 90 6 174 -72 39 -36 71 -64 71 -61 0 2 -7 21 -15 40 -22 52 -20 94 5 102 16 5 41 -15 125 -102 59 -59 104 -99 101 -88 -11 46 -16 99 -11 117 17 52 84 36 173 -40 l59 -51 -53 137 c-29 75 -54 145 -54 155 0 17 -11 18 -202 12 -112 -4 -225 -8 -253 -10 -27 -2 -291 -6 -585 -9 -561 -7 -780 -14 -778 -24 3 -25 -8 -31 -59 -37 -84 -11 -85 -12 -61 -68 19 -43 24 -48 47 -44 247 44 299 44 467 2 285 -72 546 -283 662 -535 48 -105 62 -159 62 -248 0 -269 -225 -451 -557 -452 -51 0 -93 -3 -93 -6 0 -4 8 -28 17 -56 16 -43 16 -50 3 -58 -8 -5 -19 -8 -25 -7 -8 3 -39 49 -83 124 -4 7 -59 25 -123 41 -378 96 -707 336 -829 606 -48 106 -63 179 -57 287 l5 97 -67 51 c-37 28 -78 62 -91 76 -13 14 -27 25 -32 25 -5 0 -18 -21 -30 -47 -19 -43 -19 -48 -5 -79 9 -18 29 -41 44 -51 38 -24 43 -34 31 -56 -20 -38 -96 2 -128 68 -29 61 -173 188 -242 214 -27 10 -28 9 -28 -19 0 -40 33 -108 76 -158 35 -41 37 -65 6 -77 -24 -9 -63 25 -101 88 -56 95 -201 187 -201 128 0 -10 16 -52 35 -94 38 -82 43 -114 20 -123 -24 -10 -78 31 -155 118 -41 46 -78 88 -83 93 -5 6 -3 -3 5 -20 8 -16 27 -55 41 -84 30 -61 33 -81 15 -99 -21 -21 -37 -13 -58 28 -15 29 -34 47 -70 65 -59 30 -80 32 -80 6 0 -11 -5 -23 -11 -27 -8 -4 -8 -9 0 -17 19 -19 12 -47 -14 -59 -56 -25 -149 33 -190 118 -41 86 -28 162 32 185 55 21 116 -23 158 -113 13 -26 28 -38 68 -53 29 -11 56 -21 60 -23 4 -2 1 13 -9 34 -9 22 -23 60 -32 87 -15 44 -15 49 1 64 24 24 41 12 147 -105 51 -56 94 -101 96 -99 2 1 -1 20 -6 42 -22 95 -4 141 49 125 43 -12 73 -29 109 -63 l32 -31 0 57 c0 49 3 59 25 73 15 10 32 13 47 9 30 -9 97 -62 175 -138 l62 -61 11 28 c5 15 10 30 10 33 0 3 10 19 22 35 21 30 21 32 4 63 -24 44 -18 79 13 83 35 5 51 -22 51 -83 0 -48 2 -53 47 -90 50 -43 145 -115 150 -115 1 0 15 23 29 52 55 108 191 218 327 264 46 15 60 31 35 38 -7 3 -258 7 -558 11 -300 3 -585 8 -635 10 -49 2 -191 6 -315 10 -313 8 -437 17 -560 41 l-35 7 48 -37 c55 -43 64 -80 21 -96 -33 -13 -364 -13 -364 -1 0 6 75 11 175 13 117 2 178 7 186 15 9 9 -6 23 -65 62 -42 27 -86 53 -96 56 -22 7 -28 45 -7 45 6 0 30 -5 52 -10 136 -32 315 -47 665 -55 124 -3 261 -8 305 -10 44 -2 324 -7 623 -11 571 -8 556 -9 532 36 -11 20 -41 25 -210 35 -174 10 -454 38 -499 49 -54 14 -73 43 -20 32 50 -10 163 -24 254 -30 44 -4 107 -8 140 -11 135 -10 305 -17 305 -12 0 3 -14 42 -30 87 -29 78 -31 105 -8 98 6 -2 26 -44 46 -93z m-2615 -368 c-15 -19 -30 -32 -32 -30 -5 3 49 63 57 63 2 0 -9 -15 -25 -33z m5088 -5 c45 -29 212 -200 231 -237 6 -11 -29 21 -78 70 -129 131 -223 186 -240 140 -11 -28 6 -65 34 -76 56 -20 76 -35 104 -78 33 -53 36 -86 8 -101 -29 -15 -58 -4 -103 39 -84 79 -119 211 -68 252 32 26 59 24 112 -9z m-3242 -368 c17 -61 -22 -100 -55 -56 -18 23 -17 52 3 74 25 27 41 22 52 -18z"/>
<path d="M3982 4068 c-27 -27 -1 -164 58 -313 41 -104 171 -356 187 -362 21 -8 91 39 104 69 23 56 6 147 -45 244 -54 101 -139 223 -210 301 -57 63 -78 77 -94 61z"/>
<path d="M3690 3992 c13 -70 58 -132 96 -132 46 0 38 20 -45 115 -51 59 -60 62 -51 17z"/>
<path d="M2657 3984 c-4 -4 -7 -19 -7 -32 0 -62 -97 -161 -187 -193 -29 -10 -46 -29 -25 -29 4 0 57 -4 117 -10 126 -11 302 -16 309 -9 4 4 -170 249 -193 272 -4 4 -10 4 -14 1z"/>
<path d="M3480 3679 c0 -8 130 -112 135 -107 2 2 -5 30 -17 61 l-21 57 -48 -2 c-27 -2 -49 -6 -49 -9z"/>
<path d="M3014 3663 c11 -28 254 -357 386 -521 195 -244 342 -382 407 -382 21 0 23 4 23 53 0 103 -37 253 -132 535 l-62 183 -60 49 c-34 26 -72 60 -85 74 l-24 26 -230 0 c-211 0 -229 -1 -223 -17z"/>
<path d="M7767 4542 c-39 -43 -8 -112 49 -112 48 0 76 77 42 117 -16 19 -72 16 -91 -5z"/>
<path d="M6500 4530 c0 -27 3 -30 34 -30 18 0 39 7 46 15 19 22 -5 45 -46 45 -31 0 -34 -3 -34 -30z"/>
<path d="M6500 4460 c0 -19 9 -24 40 -21 52 6 47 41 -6 41 -27 0 -34 -4 -34 -20z"/>
<path d="M6810 4495 c0 -62 1 -65 24 -65 33 0 76 37 76 66 0 33 -34 64 -70 64 l-30 0 0 -65z"/>
<path d="M7990 4470 c0 -17 5 -30 13 -31 6 0 20 -2 29 -4 23 -4 41 20 33 45 -5 15 -15 20 -41 20 -31 0 -34 -2 -34 -30z"/>
<path d="M8360 4466 c0 -33 3 -36 28 -36 37 0 65 21 61 46 -3 15 -14 20 -47 22 l-42 3 0 -35z"/>
<path d="M5990 4298 c0 -8 6 -22 13 -33 13 -17 41 -18 687 -12 370 4 675 9 678 12 3 3 -30 5 -74 5 -178 1 -1016 26 -1191 36 -95 6 -113 4 -113 -8z"/>
<path d="M6034 4201 c3 -5 15 -7 26 -4 28 7 25 13 -6 13 -14 0 -23 -4 -20 -9z"/>
<path d="M5943 4105 c-157 -60 -268 -170 -307 -304 -30 -102 -17 -199 44 -326 104 -217 305 -392 590 -514 96 -41 256 -89 265 -79 3 3 -55 128 -129 279 -146 299 -293 617 -347 747 -32 81 -33 84 -15 97 18 14 18 16 -4 70 -12 30 -25 55 -29 55 -3 -1 -34 -12 -68 -25z"/>
<path d="M5324 4106 c-6 -17 11 -46 28 -46 14 0 5 53 -9 58 -7 2 -16 -4 -19 -12z"/>
<path d="M8124 4050 c8 -29 79 -180 83 -176 2 2 -16 46 -42 97 -25 52 -43 87 -41 79z"/>
<path d="M4302 4034 c-22 -39 33 -145 85 -165 29 -11 63 -12 47 -1 -6 4 -17 18 -24 31 -11 21 -10 26 5 37 16 12 16 15 -4 43 -26 36 -69 71 -87 71 -7 0 -17 -7 -22 -16z"/>
<path d="M6255 4036 c-5 -2 -36 -9 -67 -16 -36 -7 -58 -17 -58 -25 0 -7 103 -237 229 -512 125 -274 240 -526 256 -560 l27 -62 63 -6 c130 -14 313 28 409 94 173 119 214 336 105 553 -76 150 -188 276 -332 372 -171 114 -300 156 -492 162 -71 2 -134 2 -140 0z"/>
<path d="M6070 3975 c0 -14 173 -376 177 -371 3 2 -9 30 -25 62 -16 33 -53 113 -82 179 -48 111 -70 152 -70 130z"/>
<path d="M7529 3876 c14 -14 27 -26 29 -26 10 0 -26 44 -39 48 -8 3 -3 -7 10 -22z"/>
<path d="M8234 3635 c-19 -14 -18 -14 4 -15 13 0 22 6 22 15 0 19 -1 19 -26 0z"/>
<path d="M8370 3894 c0 -11 40 -47 46 -41 2 2 -7 14 -21 27 -14 13 -25 19 -25 14z"/>
</g>


</svg>